<svg width="29" height="28" viewBox="0 0 29 28" fill="none" xmlns="http://www.w3.org/2000/svg">
<path d="M14.5 0C12.6615 0 10.841 0.371111 9.14243 1.09214C7.44387 1.81318 5.90053 2.87001 4.6005 4.20231C1.975 6.893 0.5 10.5424 0.5 14.3476C0.5 20.6892 4.518 26.0695 10.076 27.9778C10.776 28.0926 11 27.6478 11 27.2604V24.8357C7.122 25.6965 6.296 22.9131 6.296 22.9131C5.652 21.2488 4.742 20.804 4.742 20.804C3.468 19.9144 4.84 19.9431 4.84 19.9431C6.24 20.0436 6.982 21.4209 6.982 21.4209C8.2 23.6018 10.258 22.9561 11.056 22.6118C11.182 21.6792 11.546 21.0479 11.938 20.6892C8.83 20.3305 5.568 19.0966 5.568 13.6302C5.568 12.0376 6.1 10.7607 7.01 9.742C6.87 9.38332 6.38 7.89117 7.15 5.95424C7.15 5.95424 8.326 5.56686 11 7.4177C12.106 7.10205 13.31 6.94423 14.5 6.94423C15.69 6.94423 16.894 7.10205 18 7.4177C20.674 5.56686 21.85 5.95424 21.85 5.95424C22.62 7.89117 22.13 9.38332 21.99 9.742C22.9 10.7607 23.432 12.0376 23.432 13.6302C23.432 19.111 20.156 20.3162 17.034 20.6749C17.538 21.1196 18 21.9948 18 23.3292V27.2604C18 27.6478 18.224 28.1069 18.938 27.9778C24.496 26.0552 28.5 20.6892 28.5 14.3476C28.5 12.4634 28.1379 10.5977 27.4343 8.857C26.7307 7.11627 25.6995 5.5346 24.3995 4.20231C23.0995 2.87001 21.5561 1.81318 19.8576 1.09214C18.159 0.371111 16.3385 0 14.5 0Z" fill="black" fill-opacity="0.5"/>
</svg>
