<svg width="28" height="28" viewBox="0 0 28 28" fill="none" xmlns="http://www.w3.org/2000/svg">
<path d="M14.0002 19.5558C15.4736 19.5558 16.8867 18.9704 17.9286 17.9286C18.9704 16.8867 19.5557 15.4736 19.5557 14.0002C19.5557 12.5268 18.9704 11.1137 17.9286 10.0718C16.8867 9.02996 15.4736 8.44464 14.0002 8.44464C12.5268 8.44464 11.1137 9.02996 10.0718 10.0718C9.02994 11.1137 8.44463 12.5268 8.44463 14.0002C8.44463 15.4736 9.02994 16.8867 10.0718 17.9286C11.1137 18.9704 12.5268 19.5558 14.0002 19.5558Z" stroke="black" stroke-opacity="0.5" stroke-width="2" stroke-linecap="round" stroke-linejoin="round"/>
<path d="M1.5 19.5556V8.44444C1.5 6.60266 2.23164 4.83632 3.53398 3.53398C4.83632 2.23164 6.60266 1.5 8.44444 1.5H19.5556C21.3973 1.5 23.1637 2.23164 24.466 3.53398C25.7684 4.83632 26.5 6.60266 26.5 8.44444V19.5556C26.5 21.3973 25.7684 23.1637 24.466 24.466C23.1637 25.7684 21.3973 26.5 19.5556 26.5H8.44444C6.60266 26.5 4.83632 25.7684 3.53398 24.466C2.23164 23.1637 1.5 21.3973 1.5 19.5556Z" stroke="black" stroke-opacity="0.5" stroke-width="2"/>
<path d="M21.6393 6.37841L21.6562 6.35974" stroke="black" stroke-opacity="0.5" stroke-width="2" stroke-linecap="round" stroke-linejoin="round"/>
</svg>
