<svg width="26" height="26" viewBox="0 0 26 26" fill="none" xmlns="http://www.w3.org/2000/svg">
<path d="M22.7222 0.5C23.4589 0.5 24.1655 0.792658 24.6864 1.31359C25.2073 1.83453 25.5 2.54107 25.5 3.27778V22.7222C25.5 23.4589 25.2073 24.1655 24.6864 24.6864C24.1655 25.2073 23.4589 25.5 22.7222 25.5H3.27778C2.54107 25.5 1.83453 25.2073 1.31359 24.6864C0.792658 24.1655 0.5 23.4589 0.5 22.7222V3.27778C0.5 2.54107 0.792658 1.83453 1.31359 1.31359C1.83453 0.792658 2.54107 0.5 3.27778 0.5H22.7222ZM22.0278 22.0278V14.6667C22.0278 13.4658 21.5507 12.3142 20.7016 11.465C19.8525 10.6159 18.7008 10.1389 17.5 10.1389C16.3194 10.1389 14.9444 10.8611 14.2778 11.9444V10.4028H10.4028V22.0278H14.2778V15.1806C14.2778 14.1111 15.1389 13.2361 16.2083 13.2361C16.724 13.2361 17.2186 13.441 17.5833 13.8056C17.9479 14.1703 18.1528 14.6649 18.1528 15.1806V22.0278H22.0278ZM5.88889 8.22222C6.50773 8.22222 7.10122 7.97639 7.53881 7.53881C7.97639 7.10122 8.22222 6.50773 8.22222 5.88889C8.22222 4.59722 7.18056 3.54167 5.88889 3.54167C5.26637 3.54167 4.66934 3.78896 4.22915 4.22915C3.78896 4.66934 3.54167 5.26637 3.54167 5.88889C3.54167 7.18056 4.59722 8.22222 5.88889 8.22222ZM7.81944 22.0278V10.4028H3.97222V22.0278H7.81944Z" fill="black" fill-opacity="0.5"/>
</svg>
