<svg width="29" height="28" viewBox="0 0 29 28" fill="none" xmlns="http://www.w3.org/2000/svg">
<path fill-rule="evenodd" clip-rule="evenodd" d="M28.5 14C28.5 21.732 22.232 28 14.5 28C6.76801 28 0.5 21.732 0.5 14C0.5 6.26801 6.76801 0 14.5 0C22.232 0 28.5 6.26801 28.5 14ZM15.0017 10.3354C13.64 10.9018 10.9185 12.0741 6.83721 13.8522C6.17447 14.1158 5.8273 14.3736 5.7957 14.6257C5.74228 15.0517 6.27583 15.2195 7.00238 15.448C7.10121 15.4791 7.20361 15.5112 7.30859 15.5454C8.02341 15.7777 8.98496 16.0496 9.48484 16.0604C9.93827 16.0702 10.4443 15.8832 11.0031 15.4996C14.8164 12.9255 16.7848 11.6244 16.9084 11.5964C16.9955 11.5766 17.1164 11.5517 17.1982 11.6245C17.2801 11.6972 17.272 11.835 17.2634 11.872C17.2105 12.0973 15.1162 14.0444 14.0323 15.0521C13.6944 15.3662 13.4548 15.589 13.4058 15.6399C13.296 15.7539 13.1841 15.8617 13.0766 15.9654C12.4126 16.6055 11.9146 17.0856 13.1042 17.8696C13.6759 18.2463 14.1334 18.5578 14.5897 18.8686C15.0882 19.2081 15.5853 19.5466 16.2285 19.9683C16.3924 20.0757 16.5489 20.1873 16.7014 20.2959C17.2814 20.7095 17.8025 21.081 18.4464 21.0217C18.8205 20.9873 19.2069 20.6355 19.4031 19.5864C19.8669 17.107 20.7786 11.7349 20.9893 9.52114C21.0077 9.32718 20.9845 9.07897 20.9658 8.97C20.9472 8.86104 20.9082 8.70579 20.7666 8.59087C20.5989 8.45476 20.3399 8.42606 20.2241 8.4281C19.6975 8.43737 18.8896 8.71829 15.0017 10.3354Z" fill="black" fill-opacity="0.5"/>
</svg>
