<svg width="24" height="24" viewBox="0 0 24 24" fill="none" xmlns="http://www.w3.org/2000/svg">
<path d="M3.1351 3H3.40345C3.87723 3 4.11453 3 4.30777 3.08548C4.47814 3.16084 4.62381 3.28218 4.72885 3.43604C4.84779 3.61026 4.89074 3.8429 4.97647 4.30727L7.13514 16L17.5569 16C18.0101 16 18.2374 16 18.4251 15.9199C18.591 15.8492 18.734 15.7346 18.8402 15.5889C18.9603 15.4242 19.0112 15.2037 19.1128 14.7631L19.1136 14.76L20.6828 7.95996L20.6832 7.95854C20.8374 7.29016 20.9147 6.95515 20.8298 6.69238C20.7554 6.46182 20.5986 6.26634 20.3907 6.14192C20.1535 6 19.8109 6 19.1238 6H5.6351M18.1351 21C17.5828 21 17.1351 20.5523 17.1351 20C17.1351 19.4477 17.5828 19 18.1351 19C18.6874 19 19.1351 19.4477 19.1351 20C19.1351 20.5523 18.6874 21 18.1351 21ZM8.1351 21C7.58282 21 7.1351 20.5523 7.1351 20C7.1351 19.4477 7.58282 19 8.1351 19C8.68739 19 9.1351 19.4477 9.1351 20C9.1351 20.5523 8.68739 21 8.1351 21Z" stroke="#475467" stroke-width="2" stroke-linecap="round" stroke-linejoin="round"/>
</svg>
